<svg xmlns="http://www.w3.org/2000/svg" viewBox="0 0 562.35 734.67"><defs><style>.cls-1,.cls-11,.cls-12,.cls-17{fill:#268b42;}.cls-1,.cls-11,.cls-12,.cls-13,.cls-15,.cls-16,.cls-17,.cls-21,.cls-23,.cls-24,.cls-26,.cls-27,.cls-4,.cls-5,.cls-6{stroke:#1d1d1b;stroke-miterlimit:10;}.cls-1,.cls-15,.cls-16,.cls-23,.cls-24,.cls-26,.cls-27,.cls-4,.cls-5,.cls-6{stroke-width:0.25px;}.cls-2{fill:#f7a720;}.cls-3,.cls-6{fill:#1d1d1b;}.cls-4,.cls-7{fill:#f5a71e;}.cls-5{fill:#f4a91c;}.cls-8{fill:#f5a71c;}.cls-9{fill:#f7a41b;}.cls-10{fill:#f4a81d;}.cls-11,.cls-21{stroke-width:0.5px;}.cls-12,.cls-13{stroke-width:0.6px;}.cls-13{fill:#00983a;}.cls-14,.cls-16{fill:#f39f1e;}.cls-15{fill:#e30613;}.cls-17{stroke-width:0.6px;}.cls-18{fill:#d41a24;}.cls-19{fill:#d61927;}.cls-20{fill:#fff;}.cls-21{fill:#f59d21;}.cls-22{fill:#f7a724;}.cls-23,.cls-25{fill:#faeebe;}.cls-24{fill:#f9b233;}.cls-26{fill:#f2a71f;}.cls-27{fill:#f7a418;}</style></defs><g id="Capa_2" data-name="Capa 2"><g id="Capa_1-2" data-name="Capa 1"><path class="cls-1" d="M254.19,463.67c-.64-.19-1.27-.42-1.92-.56-1.36-.28-2-.95-2-2.32.06-1.62.25-3.19-1.05-4.7a1.71,1.71,0,0,1,1.28-2.76c1.37-.24,1.41-1,1.57-1.9.41-2.39,1.2-4.91-.66-7-1.5-1.65-2.89-3.34-4.24-5.08-1-1.23-2-2.4-2.33-4a1.09,1.09,0,0,0-.41-.72c-4-2.29-5.38-6.23-7.07-9.9a8.4,8.4,0,0,0-3.7-4,8.17,8.17,0,0,1-4.38-5.69,36.49,36.49,0,0,0-5.55-11.24c-.87-1.28-2.52-1.1-3.78-1.63-2.3-1-2.87-2-2-4.16a4,4,0,0,0,0-3.48c-1.71-3.66-4.23-6.7-6.86-9.85-3-3.63-6-7.62-7.07-12.37-.58-2.48-1.08-5-3.12-7a3.36,3.36,0,0,1-1.09-2.23c.25-3-2.13-4.78-3.71-6.77-.82-1-.71-2.16-1.46-3.1-1.32-1.66-2.05-3.67-3.65-5.2a2.68,2.68,0,0,1-.69-3.09,3,3,0,0,0-.93-3.6c-2-2-4.06-3.73-5.07-6.63-.78-2.26-3.66-3.9-5.59-5.83a24.66,24.66,0,0,1-4.78-6.66c-2-4.2-4.33-8.29-6.66-12.35a11.45,11.45,0,0,0-2.55-2.32c-1.47-1.28-3.07-2.43-3.84-4.26a4.5,4.5,0,0,0-2.16-2c-3.08-1.72-6.16-3.43-9.12-5.31a36.21,36.21,0,0,0-9.38-3.93,23,23,0,0,1-6.37-3c-2.62-1.75-2.75-4.7-.44-6.79a2.38,2.38,0,0,1,2.6-.59c1.93.61,2.7.08,2.77-1.75a8.73,8.73,0,0,0-3.85-8c-3.42-2.42-3.51-3.45-1.54-7.07.72-1.33-.78-2.34-1.53-3.33a6,6,0,0,0-2.15-1.48c-2.1-1-2.33-2.59-1.65-4.39a15.41,15.41,0,0,0,1.15-6.3,2.1,2.1,0,0,1,.64-1.51c1.73-2,3.36-4.08,5.22-6a19.87,19.87,0,0,0,3.73-4.63,6.62,6.62,0,0,1,3.47-2.81c2.68-1.21,5.31-2.52,7.95-3.79a2.59,2.59,0,0,0,1.39-1c.95-1.87,2-1,2.79,0a6.56,6.56,0,0,1,1.2,4.68,3.31,3.31,0,0,0,.91,3c1.19,1.18.82,2.12-.52,3.11-1.55,1.13-2.94,2.37-5.16,2.06-.59-.08-1.21.08-1.32.82s-.06,1.41.86,1.69c2.57.77,2.05,2.12.8,3.61a5.11,5.11,0,0,0-.71,1.05c-.19.42-.62.91-.14,1.34s1,0,1.4-.23q2.51-1.38,5-2.83c.52-.31,1.18-.78,1.62-.42,1.86,1.54,4.42,1.9,6.31,3.27,1,.71,1.88,1,2.81.38,1.22-.84,2.09-.29,3,.31.66.41,1.23,1.08,2,1.24,1.45.33,1.71.84.92,2s.59,1.86,1,2.73c1.92,4,4,5.12,8.3,4.84.26,0,.71-.18.74-.33.33-1.56,2.54-2.36,2-4.32-.32-1.12.56-1.8,1.5-2.32s1.88-.87,2.77-1.39c1.41-.8,2.48-1.75,1.85-3.54a3.78,3.78,0,0,1,.29-2.64c1-2.46,1.93-4.95,2.83-7.45a10.68,10.68,0,0,1,2.6-4.53c1.26-1.17,1.35-2.74,1.21-4.29-.1-1.24,0-2.45,1.29-3.11s1.94.58,3.2,1.13c-2.22-2.37.1-3.5,1.27-4.74,1.86-2,4-3.78,6-5.63,1.41-1.26,3.34-1.58,5.1-2,6.7-1.53,13.48-3.09,19.58-5.91,6.87-3.18,13.9-6.37,18.74-12.48,2.53-3.2,6-5.77,8.73-8.91,2.09-2.4,2.4-5.32,3.32-8.07.75-2.24,1.24-4.56,2.87-6.49.48-.57.84-.88,1.61-.74,1.67.33,2.08-.05,1.26-1.59a5.68,5.68,0,0,1-.39-5.42c.48-1,.1-1.58-.88-2a5.67,5.67,0,0,1-3.37-3.92,3.13,3.13,0,0,0-2.2-2.17,1.81,1.81,0,0,1-1.27-2.67c.5-1.17,1.68-.57,2.57-.38,1.69.36,3.21,1.17,5.14.64a4.31,4.31,0,0,0,2.43-1.22,2.15,2.15,0,0,1,3.16-.35c1.24.87,2.82,1.27,3.84,2.44a1.54,1.54,0,0,0,1.8.53c2-.81,2.83.47,3.83,1.65a26.28,26.28,0,0,0,6.38,5.38c.78.48,1.71.94,1.84,1.72.43,2.51,2.46,4.43,2.85,6.93a2.44,2.44,0,0,0,3.19,2.25c1.47-.27,2.34,0,2.68,1.41.08.31.37.85.52.84,2-.16,3.07,1.63,4.87,1.82,2,.21,5.37,3.34,5.88,5.29a3.9,3.9,0,0,0,1,1.56c1,1.11,2,2.13.42,3.54-.56.5-.34,1.1.33,1.59a5.38,5.38,0,0,0,4.15,1.08c3.08-.46,5.17,1.59,4.56,4.41a2.84,2.84,0,0,0,.23,2,2.84,2.84,0,0,1,.21,2.44c-1.2,2.31.9,2.45,2.14,3.52,2.2,1.91,4.87,1.42,6.7.74,3.42-1.27,6.22.11,9.26.58a3.33,3.33,0,0,0,2.38-.23c2.9-2.15,7.42-1.78,9.43-5.35.61-1.09,1.76-1,3.12-.48,1.79.75,3.45,1.87,5.48,2.05,1.29.11,1.39,1.63,2.88,1.71a8.59,8.59,0,0,0,6.32-2.11,4.38,4.38,0,0,1,4.63-.27c1.89,1.1,4.16,1.81,5.47,3.83.93,1.43,3.43,1.65,4.65,1.44,2.76-.48,3.58,1.26,4.89,2.5a4.25,4.25,0,0,0,2.48,1.49c1.89.32,1.6,1.73,1,2.94-2.25,4.55-5.37,8.6-8.37,12.73-1.58,2.18-3.24,4.32-4.76,6.53-.35.52-1.77.94-.7,1.78.81.63,1.86,1.22,3,.35a4.68,4.68,0,0,1,4.89-.2,5,5,0,0,1,2.66,2.41,14.43,14.43,0,0,0,4.53,5.35c2.12,1.55,2,3.87-.15,5.4l-.17.14c-1.57,1.24-3.38-1.78-4.91.24-1.33-1-3.34-1.46-3-3.67.15-1.06-.82-1.09-1.54-.87-2.58.75-5,1.69-7.9,1-1.27-.3-2,1.12-2.57,2a4.16,4.16,0,0,1-4.11,2.08c-1.91,0-3.95.79-6,1-4,.4-7.81,2-12,1.72-2.72-.17-4.65,1.72-6.87,2.75a6.62,6.62,0,0,0-3,2.47c-.1.17-.31.46-.42.44-4.4-.63-5,4-8.41,5.09a22.46,22.46,0,0,0-5.87,2.48c-.85.56-1.58,1-1.07,2.13.18.42.31,1.14.07,1.4-1.87,2-1.27,4.35-1.4,6.61a5.91,5.91,0,0,1-2.24,3.91,16.12,16.12,0,0,0-3.11,4,4.43,4.43,0,0,0-.25,4.34c1,2.31,2,4.65.55,7.19a3.83,3.83,0,0,1-3.3,2.11c-5.18.39-10,4.26-11.29,8.75a2.23,2.23,0,0,0,.42,2.48,4.66,4.66,0,0,1,.88,1.66c.73,2,0,3.05-2.23,3.36-2.54.35-3.91,3.45-2.35,5.3a9.78,9.78,0,0,0,3.72,2.6c1.45.61,2.37,1.6,1.26,3.13-.56.76-.32,1.17.41,1.7a6.61,6.61,0,0,1,2.42,4.29c.41,1.83,1,3.79,3.12,4.89a5.18,5.18,0,0,1,3,3.91c.14,1,.39,1.69,1.89,1.77a3.66,3.66,0,0,1,2.95,2.58,10,10,0,0,0,2.41,3.47c2.23,2.15,2,3.85,0,6.48-.93,1.22-2.1,2.29-3.3,3.57a10.87,10.87,0,0,0,4.94.24c4.37-.58,8.38,1.22,12.65,1.37,1.78.06,2.47,1.86,2.83,3.39a4.1,4.1,0,0,0,1.64,2.77,3.77,3.77,0,0,1,1.67,4.07c-.29,1,0,1.2,1,1.2,4.78,0,9.58.18,14.35-.08a11.51,11.51,0,0,0,6.43-2.35c4-2.94,7.67-6.21,11.83-8.94a7.45,7.45,0,0,1,1.8-.79c1.78-.54,2.45,0,2,1.67s-.95,3.09,0,4.79c.55,1-.65,1.83-1.44,2.36A3.48,3.48,0,0,0,381,371a112.76,112.76,0,0,1,1,20.13c1.32-.69,2.51-.81,3.4.16,2.34,2.57,5.09,1.66,7.57.54,2.68-1.21,5.12-2.28,7.88-.27.69.5,1.6.05,2.39-.13,3.36-.78,4.21-.52,5.93,2.18,1.1,1.72,2.06,3.54,3,5.35,3.77,7.29,7.81,14.44,12.28,21.39a23,23,0,0,1,1.82,3.56,2.26,2.26,0,0,1,.1,1.81c-.78,1.24-1.26,2.31-.6,3.81.35.8-.69,1.35-1.63,1.65-3.48,1.1-4,1.9-4.09,5.25-.09,3.73.5,7.5-.76,11.16a10.54,10.54,0,0,1-1,2.29,1.16,1.16,0,0,0,.1,1.67,3.85,3.85,0,0,1,1.09,2.67c0,2.35,1.64,4.07,2.77,6s.91,2.7-1.48,3.24c-1.18.27-2.29.23-1.41,1.95.46.92-1,1.43-1.7,1.94s-1.64,1.08-1.44,2.3c.14.85-.46,1.51-1.48,1.46-1.5-.07-1.74.69-1.71,1.83a2.17,2.17,0,0,1-1.15,1.91c-2.05,1.26-2.2,2.74-.57,4.39,1.11,1.12,2.11,2.34,3.2,3.48,1.24,1.3,1.06,2.52-.55,3.21-2.4,1-2.76,3.3-4.09,5a2.45,2.45,0,0,0,0,2.24c1.07,3,2.17,6,3.24,9,.63,1.74,1.62,2.83,3.91,2.65a7,7,0,0,1,5.19,1.6c1.18,1,1.14,1.87-.41,2.55-.94.42-1.83.94-2.75,1.39-1.39.68-2,1.5-1.15,3s-.47,2.56-1.56,3c-3.19,1.39-5,3.86-6.45,6.55-1,1.88-2.09,3.49-4.61,3.71a1.45,1.45,0,0,0-1.37.93c-.15.6.44,1,.89,1.34,2.28,2,2.35,3.39.07,5.35-1.5,1.29-2.52,3.2-4.9,3.47-.54.06-.68.48-.57.95.06.27.16.53.23.8.52,1.86,2.17,3.58.63,5.67a15.28,15.28,0,0,1-8.8,6.25c-6.79,1.82-11.11-1.79-15.2-5.4a37.35,37.35,0,0,0-8.78-6,6.52,6.52,0,0,1-4.18-5.07,9.94,9.94,0,0,0-6.79-7.4,15.78,15.78,0,0,1-6.73-4,8.8,8.8,0,0,0-5.4-2.71,4.35,4.35,0,0,1-3.22-2,4.91,4.91,0,0,0-3.48-2.4c-7.57-1.21-13.63-5.5-20.36-8.43-2.43-1.06-4.81-2.24-7.66-2a4.52,4.52,0,0,1-3.41-1.36c-1.2-1.05-2.42-2.08-3.51-3.22a5.93,5.93,0,0,0-4.7-2,4.74,4.74,0,0,1-3.42-1.33,33.42,33.42,0,0,0-8.52-5c-3.13-1.37-6-3.11-9-4.71-1.09-.59-.89-1.61-1.46-2.35-1.88-2.47-4.78-4-6.62-6.46-1.39-1.86-3.87-2.58-6-3.59a11.68,11.68,0,0,1-5.61-5.17c-.72-1.42-2-2.64-2.21-4.27C254.71,465.6,255.18,464.41,254.19,463.67Z"/><path class="cls-2" d="M275.79,304l.4,55.91.12,17.11.1,13.91.12,17.11.1,13.55.12,17.1.07,10.09.12,17.1.05,7.28.13,17.11,0,5.87.08,11.73h0l0,5.51.08,10.7s0,0,0,0l.14,20.28a6.92,6.92,0,0,0,3.77,2.14h0c1.2.12,2.5-.36,3.63-2.14l.18-24.18.05-6.81.08-10.44.06-6.81L285.4,480l.05-6.85.13-17.53.05-6.85.16-20.38,0-6.81.18-23.83.05-6.83.19-24.2.05-6.82L287,275H275.59v.13"/><path class="cls-3" d="M286.31,359.86l-.05,6.82c-2.73,0-9.11.95-9,10.29h-.94l-.12-17.11Zm-9.9,31,.12,17.11h1.1c-.1-8.69,5.42-10.13,8.39-10.28l.05-6.83Zm.22,30.66.12,17.1h.35c-.1-9,5.82-10.22,8.69-10.29l0-6.81Zm.19,27.19.12,17.1h.67c-.09-8.3,4.93-10,8-10.25l.05-6.85Zm.17,24.38.13,17.11h.24c-.09-8.36,5-10,8-10.26l.05-6.85Zm.17,23,.08,11.73a8.26,8.26,0,0,1,8-4.92l.06-6.81Zm.12,17.25.08,10.7c2.07-3.52,5.88-3.92,7.73-3.89l.05-6.81Z"/><path class="cls-3" d="M281.27,546.47a6.92,6.92,0,0,1-3.77-2.14L275.59,275h2.24l.84,268.6C278.67,543.63,278.69,545.55,281.27,546.47Z"/><path class="cls-4" d="M326.22,356.22a139.07,139.07,0,0,1-37.9,6.46V344.89c2.61.06,6.18.09,10-.05l1.38-.06c6.41-.29,13.3-1.07,17.51-2.92,9.57-4.21,6.12-10.34,6.12-10.34s-.76-2.3-4.21-3.64c0,0-2.49,4.22-6.51,4.79s-9.48-1.77-9.48-1.77-2.82-1.63-5.27-.57a6.86,6.86,0,0,1-5.36,0s-7.47-2.45,3.26-10.87,20.3-7.09,20.3-7.09,22.4.2,26.42,19S326.22,356.22,326.22,356.22Z"/><path class="cls-5" d="M244.57,327.89s2.49,4.21,6.51,4.78,9.48-1.77,9.48-1.77,2.82-1.63,5.26-.57a6.85,6.85,0,0,0,5.36,0s7.47-2.44-3.25-10.87-20.3-7.08-20.3-7.08-22.4.19-26.43,18.95,16.28,24.9,16.28,24.9a139.84,139.84,0,0,0,43.09,6.51c24.12-.19,22,9.26,22,9.26s1,3.57-3.45,5.86c0,0,11.87,3.45,17.43,9.39,0,0,19.15-11.87,9.95-29.11s-46.91-13.4-46.91-13.4-23.55,1.34-33.13-2.88-6.13-10.34-6.13-10.34S241.12,329.23,244.57,327.89Z"/><path class="cls-3" d="M254.91,319.46s-3.64-4.21-5.17,0A13.05,13.05,0,0,1,254.91,319.46Z"/><path class="cls-3" d="M246.48,323.19s-.53,6.85,4.74,7.47a14.21,14.21,0,0,0,9.1-2.06,4,4,0,0,1,3.06-.43s-1-.93-5.17.58c-4.88,1.77-8,.38-8,.38S247.77,328.84,246.48,323.19Z"/><path class="cls-3" d="M308.94,319.46s3.64-4.21,5.17,0A13.07,13.07,0,0,0,308.94,319.46Z"/><path class="cls-3" d="M317.37,323.19s.52,6.85-4.74,7.47a14.21,14.21,0,0,1-9.1-2.06,4,4,0,0,0-3.06-.43s1-.93,5.17.58c4.88,1.77,8,.38,8,.38S316.07,328.84,317.37,323.19Z"/><path class="cls-6" d="M323.11,404.57a22,22,0,0,1-3.35,8.53s-3.71,5.61-8.56,8.3c0,0-5.87-7-14.17-9.58,0,0,8.3-8.3-2.42-13.79-6.56-3.35-18.51-3.93-20.42-3.95a5.65,5.65,0,0,1-.58,0c-4.44-.52-50.75-6-33.21-36.89a136.38,136.38,0,0,0,20.41,4.29s-2.36,4.46.63,8.31l.1.12c1.71,2.14,5.1,4.07,11.49,4.93,18,2.42,30.39.38,43.54,12.45C323.09,393.23,323.92,399.64,323.11,404.57ZM303.57,414.9s-6.92-5.12-28-7.55c-10-1.14-13.66-4.66-14.77-8.05h0a10.35,10.35,0,0,1,.7-7.38,51.3,51.3,0,0,1-17.3-7.41c-6,9-6.45,16.74-4,22.92h0c2.23,5.55,6.85,9.81,12,12.47a27,27,0,0,0,13.09,3.15c14.3-.63,23.88,4.73,23.88,4.73s3.7,2.42,3.95,6a11.11,11.11,0,0,1-2,6.64,24.26,24.26,0,0,1,13.92,8.29c8.42-5.49,9.32-11.87,9.32-11.87.08-.43.15-.86.2-1.27h0C316.55,421.27,303.57,414.9,303.57,414.9Zm1.51,33.81c-11.71-12.78-23.24-8.55-34.86-13.14-3.73-1.48-5.56-3.3-6.33-5.09l0-.05c-1.59-3.76,1.5-7.38,1.5-7.38a23.48,23.48,0,0,1-14.56-3.95,18.87,18.87,0,0,0-4.07,16.21,14.23,14.23,0,0,0,1.16,3.25h0a15.83,15.83,0,0,0,3.91,5c4.47,3.88,11,5.72,16.76,5.8,8.93.13,13.14,1.66,13.14,1.66s7.54,2.81,10.09,7.92-2.55,6.89-2.55,6.89a20.57,20.57,0,0,1,11.23,6.89,27.49,27.49,0,0,0,6.33-7.23C309.44,461,310.72,454.88,305.08,448.71Zm-6.53,22s-2.54-4-19.9-7.54c-6.41-1.32-9.25-3.53-10.29-5.81,0,0,0,0,0,0-1.76-3.88,1.74-7.93,1.74-7.93-10.71-.35-12.89-2.47-12.89-2.47s-5.62,6-2.56,16.86a10.28,10.28,0,0,0,1,2.37h0c5,8.47,21.15,8.48,21.15,8.48s7.32-.89,10.13,4.08-2.17,10.47-2.17,10.47A17.89,17.89,0,0,1,296,494.42a28.05,28.05,0,0,0,5.24-6.09h0C307.81,477.72,298.55,470.68,298.55,470.68Zm-14.22,18.63c-4.48-.72-7.91-1.85-11.74-5.87a5.4,5.4,0,0,1-1.25-2h0c-1.25-3.51,1.9-7,1.9-7a28,28,0,0,1-11.09-2.81c-6.68,5.91-4.74,13.12-4.74,13.12a6.56,6.56,0,0,0,.3,1.12.28.28,0,0,1,0,.06,13.21,13.21,0,0,0,1.74,3.37c1.92,2.69,5.57,5.8,12.43,6.94,13.09,2.17,15.77,5.75,16,8.94s-3.14,4.91-3.14,4.91c5.24,1.54,6.9,5,6.9,5a15.39,15.39,0,0,0,5.16-6.18h0a19.16,19.16,0,0,0,1.47-4.21C300.16,491.86,288.81,490,284.33,489.31Zm-17.89,5.36c-4.39,6.44-4,11.14-1.63,14.52a.73.73,0,0,1,.09.13,13.53,13.53,0,0,0,2.6,2.69l.15.12c4.79,3.72,11.62,5,11.62,5s10.1,2.87,11.19,8.42c1.05,5.39-5.94,8-5.94,8s8.86-.94,10.48-9.45h0c.07-.37.13-.75.17-1.14,1-9.57-11.1-13-18.7-17.17-2.28-1.24-3.25-2.52-3.49-3.71h0c-.57-2.77,2.82-5,2.82-5M259.15,361.24c4.47.78,33.39,2.47,33.39,2.47s10.24,2,10.08,7.45-3.48,6.7-3.48,6.7a36.52,36.52,0,0,1,17.43,9.39A27.3,27.3,0,0,0,328,373.47c-1.8,7.86-10.6,8-10.6,8s-7.9-.48-12.11-10.62S287.65,359,287.65,359a152.26,152.26,0,0,0-22.31-1.85c-14.17-.33-22.69-1.5-33.8-6.76s-10.34-19.06-10.34-19.06C215.84,357.47,254.67,360.47,259.15,361.24ZM343,337.49s-.46,15-25.59,12.25c0,0,5.62,2.88,8.12,6.72C325.5,356.46,342.37,351.43,343,337.49Z"/><path class="cls-7" d="M276.53,533.47c-14.4-7.41-10-14.3-6.83-17.3h0a13.65,13.65,0,0,1,2-1.59c.08.46,4.85,1.83,4.85,1.83v4.12C266.23,524.88,276.11,533.13,276.53,533.47Zm40-146.22c-13.15-12.07-25.54-10-43.54-12.45-6.39-.86-9.78-2.79-11.49-4.93l-.1-.12c-.89-1-7.75-7.72-16.62-3.25-9.85,5-2,13.92-2,13.92s6.83,8.17,27.57,8.85c16.88.56,28.41,7.09,32.49,14.06,5.05,8.62,8.17,10.6,8.17,10.6s7.79,4,12.1-9.36C323.92,399.64,323.09,393.23,316.57,387.25Zm-13,27.65s-6.92-5.12-28-7.55c-10-1.14-13.66-4.66-14.77-8.05h0c-.18-.34-3.68-6.5-12.54-4.7-9.11,1.84-8,12.83-8,12.83h0c2.23,5.55,6.85,9.81,12,12.47a34.12,34.12,0,0,0,7.6,1c19.79.52,26.17.52,30.77,3.71a31.94,31.94,0,0,1,7.86,8.68s8.9,17.59,16.09,2.3h0C316.55,421.27,303.57,414.9,303.57,414.9Zm1.51,33.81c-11.71-12.78-23.24-8.55-34.86-13.14-3.73-1.48-5.56-3.3-6.33-5.09l0-.05a10.3,10.3,0,0,0-11.26-4.06c-7.34,1.69-5,11.11-4.71,12.19h0l0,.09a11.19,11.19,0,0,0,3.88,4.89c3,2.29,8.19,4.32,16.88,3.37C286.18,445,293,457.78,293,457.78s4.36,14.51,13.86,7.7C309.44,461,310.72,454.88,305.08,448.71Zm-6.53,22s-2.54-4-19.9-7.54c-6.41-1.32-9.25-3.53-10.29-5.81,0,0,0,0,0,0-1-1.53-3.92-5.05-9.11-2.61-6.51,3.07-3.58,11.44-3.58,11.44s3.32,8.1,19.15,6.56c12.71-1.23,15.32,9.32,15.32,9.32s1.82,11.69,11.11,6.3h0C307.81,477.72,298.55,470.68,298.55,470.68Zm-14.22,18.63c-4.48-.72-7.91-1.85-11.74-5.87a5.4,5.4,0,0,1-1.25-2h0s-3.69-5.92-9.24-3.81c-5.24,2-4.49,7.56-4.39,8.2a.28.28,0,0,1,0,.06,7,7,0,0,0,1.74,3.37c1.86,2.16,5.7,4.68,13.55,5.41C287.46,496,288.9,504,288.9,504s1.13,14.34,7.93,4.89h0a19.16,19.16,0,0,0,1.47-4.21C300.16,491.86,288.81,490,284.33,489.31Zm-7.85,16.4c-2.28-1.24-3.25-2.52-3.49-3.71h0a5,5,0,0,0-7.17-1.48c-4.6,2.78-1.07,8.57-1.07,8.57l.06.11a.73.73,0,0,1,.09.13,11.79,11.79,0,0,0,2.6,2.69l.15.12a13,13,0,0,0,8.32,2.44c7.95-.27,13.5,5.67,14,7.2s2.65,6.51,5.05,2.26h0c.07-.37.13-.75.17-1.14C296.2,513.31,284.08,509.86,276.48,505.71Z"/><path class="cls-3" d="M276.54,516.4v4.12s-.67-4.6-6.84-4.35h0a13.65,13.65,0,0,1,2-1.59C271.77,515,276.54,516.4,276.54,516.4Z"/><path class="cls-8" d="M275.66,285.5l-.07-10.4s-3.79,5.53-9.77,4.58-7.08-3.4-11.3-9.63-5.55-6.51-5.55-6.51-3.35-3-13.6.2-71.23,21.35-71.23,21.35-10.44,2.49-11.2,10.43c0,0-1,3.74,10.53,1.82,1.31-.22,2.65-.38,4-.5,1.79-.15,3.6-.22,5.38-.23h0a108.59,108.59,0,0,1,16.64,1.21,2.83,2.83,0,0,0,.11.66,5.79,5.79,0,0,0,2,3c1.78,1.53,5.09,2.91,11.24,2.78l2.73-.05,4.84-.06c5,0,11.51-.07,18.43-.1h4.25l15.8,0h2.41l13.52,0h11l-.1-14.74"/><path class="cls-3" d="M275.69,289.21c-1.65.84-8.5,3.82-15.33-.1a35.11,35.11,0,0,1-12.06-11.3l-2.2-3.64s-3.35-4.4-6.8-3.83-30.73,7.28-30.73,7.28-47.88,13.12-55.15,19c0,0,.86-3.45,7.27-5.84s52.47-16.19,52.47-16.19,24.89-6.31,27.67-6.41,6.13,1.24,8.24,6.51c3.17,7.94,11.77,12.06,11.77,12.06s11.67,5.57,14.82-1.21Z"/><path class="cls-3" d="M200.34,281.3c-20.36,10.28-26,14-27.47,15.31h0c-1.78,0-3.59.08-5.38.23C173.3,293.14,198.67,282,200.34,281.3Z"/><path class="cls-3" d="M229.91,275.4c-22.72,13.19-34.12,22.37-38.33,26.06a5.79,5.79,0,0,1-2-3Z"/><path class="cls-3" d="M243.32,276.28C228.7,287.9,216,299.15,210.39,304.13l-4.84.06Z"/><path class="cls-3" d="M256.34,290.07A114.09,114.09,0,0,0,251.28,304h-2.41Z"/><path class="cls-3" d="M267.64,292.36,266.87,304H264.8A70.82,70.82,0,0,1,267.64,292.36Z"/><path class="cls-3" d="M249.74,284.23S238.92,296.32,232.47,304l-3.29.07S248.68,285.28,249.74,284.23Z"/><path class="cls-9" d="M287.05,285.5l.07-10.4s3.79,5.53,9.77,4.58,7.08-3.4,11.3-9.63,5.55-6.51,5.55-6.51,3.35-3,13.6.2,71.23,21.35,71.23,21.35,10.44,2.49,11.2,10.43c0,0,1,3.74-10.53,1.82-1.31-.22-2.65-.38-4-.5-1.79-.15-3.6-.22-5.38-.23h0a108.59,108.59,0,0,0-16.64,1.21,2.83,2.83,0,0,1-.11.66,5.79,5.79,0,0,1-2,3c-1.78,1.53-5.09,2.91-11.24,2.78l-2.73-.05-4.84-.06c-5,0-11.51-.07-18.43-.1h-4.25l-15.8,0h-2.41l-13.52,0h-11l.1-14.74"/><path class="cls-3" d="M287,289.21c1.65.84,8.5,3.82,15.33-.1a35.11,35.11,0,0,0,12.06-11.3l2.2-3.64s3.35-4.4,6.8-3.83,30.73,7.28,30.73,7.28,47.88,13.12,55.15,19c0,0-.86-3.45-7.27-5.84s-52.47-16.19-52.47-16.19-24.89-6.31-27.67-6.41-6.13,1.24-8.24,6.51c-3.17,7.94-11.77,12.06-11.77,12.06s-11.67,5.57-14.82-1.21Z"/><path class="cls-3" d="M362.37,281.3c20.36,10.28,26,14,27.47,15.31h0c1.78,0,3.59.08,5.38.23C389.41,293.14,364,282,362.37,281.3Z"/><path class="cls-3" d="M332.8,275.4c22.72,13.19,34.12,22.37,38.33,26.06a5.79,5.79,0,0,0,2-3Z"/><path class="cls-3" d="M319.39,276.28c14.62,11.62,27.37,22.87,32.93,27.85l4.84.06Z"/><path class="cls-3" d="M306.37,290.07A114.09,114.09,0,0,1,311.43,304h2.41Z"/><path class="cls-3" d="M295.07,292.36l.77,11.59h2.07A70.82,70.82,0,0,0,295.07,292.36Z"/><path class="cls-3" d="M313,284.23s10.81,12.09,17.26,19.78l3.29.07S314,285.28,313,284.23Z"/><rect class="cls-6" x="268.35" y="264.69" width="26.23" height="10.34" rx="5.17"/><path class="cls-6" d="M297.42,259.52a5.17,5.17,0,0,1-5.17,5.17H270.8a5.17,5.17,0,0,1,0-10.34h21.45a5.17,5.17,0,0,1,5,3.8A4.73,4.73,0,0,1,297.42,259.52Z"/><circle class="cls-10" cx="282.11" cy="243.06" r="11.3"/><path class="cls-3" d="M290.62,248.66a9.86,9.86,0,0,1-17.91-5.7,9.7,9.7,0,0,1,1.28-4.85l.06,0s-1.34,6.89,4.6,10.34C284.17,251.62,289.84,249,290.62,248.66Z"/><path class="cls-7" d="M297.23,258.15c0,.3,0,.6,0,.89a3.79,3.79,0,0,1-3.44,3.74H274.92s-6.42.67-6.42-3.93,3.93-4.4,3.93-4.4l.73-.1h19.09A5.17,5.17,0,0,1,297.23,258.15Z"/><path class="cls-7" d="M294.16,268.5c0,.28,0,.57,0,.84-.06,3.28-2.58,3.56-2.58,3.56H277.43s-4.81.63-4.81-3.74,2.94-4.18,2.94-4.18l.55-.1h14.32C292.21,264.88,293.71,266.41,294.16,268.5Z"/><path class="cls-3" d="M290.62,248.66a9.86,9.86,0,0,1-17.91-5.7,9.7,9.7,0,0,1,1.28-4.85l.06,0s-1.34,6.89,4.6,10.34C284.17,251.62,289.84,249,290.62,248.66Z"/><path class="cls-11" d="M77.57,545.61s-9.58-2.68-11.11-7.28-3.26-23-5.94-22.21S51.14,525.5,50,528.18s5.94,13.6,13.79,20.49S58,564,58,564l32.75,8S93.65,555.57,77.57,545.61Z"/><path class="cls-11" d="M482.78,545.61s9.57-2.68,11.11-7.28,3.25-23,5.93-22.21,9.38,9.38,10.53,12.06-5.93,13.6-13.78,20.49S502.31,564,502.31,564l-32.74,8S466.69,555.57,482.78,545.61Z"/><path class="cls-12" d="M470.89,496.21s33.19,22.72,15.44,56.55c0,0-18.89,26.68-17.87,30.25l-4.4.71S462.78,498.31,470.89,496.21Z"/><path class="cls-12" d="M460.8,548.67s6.89,11.88,23,1.15c0,0,8.42-2.3,1.53,8.81,0,0-.25,2.68-6.13-1.15,0,0-2.68,1.41-4.72,13.28-1.93,11.22-18.26,4.72-18.26,4.72S463.1,557.1,460.8,548.67Z"/><path class="cls-13" d="M521.12,570.69c-11.87-7.08-36.19,6.71-36.19,6.71,1.93-.6,3.81,1.85,5.44,5.3,6.15-4.73,18.11-5.11,18.11-5.11s-12,.38-18.11,5.11c3.08,6.49,5.28,16.53,5.28,16.53C530.89,578.93,521.12,570.69,521.12,570.69Z"/><path class="cls-12" d="M514.8,574.91s-1.34,9.38.38,12.44c0,0,8.44,3.41,6.9,3.45-6.51.19-32.17,9.77-34.09,14S498.52,588.89,514.8,574.91Z"/><path class="cls-12" d="M502.66,633.63c2.55-2,3.92-5.82,2.09-7.29s-3.14-10.34,3-12.53c5.32-1.89,10.91-7.8,12.34-9.38a3.17,3.17,0,0,0,.59-.94c1-2.45,4.35-12.4-7.94-11a3.09,3.09,0,0,0-.59.12,153.42,153.42,0,0,0-14.94,5.64,3.22,3.22,0,0,0,1.86,6.12c10.43-2,16.3-1.18,16.3-1.18s-21.85-2.91-56.19,16.59a2.92,2.92,0,0,0-.32.21c-14.45,10.43-30,22.53-41.81,40.46a11.37,11.37,0,0,0-.48,1.19,10,10,0,0,1-5.35,4.41,79.35,79.35,0,0,1-8.23,2.29,3.15,3.15,0,0,0-1.42.72,6.77,6.77,0,0,0-2.39,6.27,3.25,3.25,0,0,0,2.44,2.61,10.31,10.31,0,0,0,4.38,0,3.17,3.17,0,0,1,2.46.55,7.66,7.66,0,0,1,1.18,1.1c1.29,1.5,6.95-.74,8.2-1.26a2.41,2.41,0,0,0,.42-.22c1.07-.64,6.53-3.54,8.89,2.7,2.11,5.61,8.49,5.33,10.86,5a3.07,3.07,0,0,0,1.68-.75c1-.92,2.55-2.81.92-5.07-2.16-3,4.18-8.52,5-9.2a1.29,1.29,0,0,0,.17-.16c.69-.68,5.11-5.16,3.62-6.81s-4-6.11,1.65-5.24c6.81,1.06,10.06,5.72,22.87-.81,10.73-5.46,5.9-11.54,2.45-14.1-3.18-2.35,1.81-3.8,2.61-4l.21,0C480.77,639.31,500.22,635.59,502.66,633.63Z"/><path class="cls-12" d="M494.06,604.28s7.31-4.24,6.25-8.24-.88-6.71,4.32-21.06-2.2-15.58-2.2-15.58c-19.15,2.61-20.33,2.28-24.35,5.45a17.7,17.7,0,0,0-5.39,8.35c-9.29-.85-14.58,8-14.58,8-30.17,13-57.18,65.36-58,69s1.53,7.84,2.66,8.61,5.89.67,6.87-.78,6.62-4.94,6.62-4.94,9.17-7,31.64-37.21,49.82-41.17,49.82-41.17-27.35,11-49.82,41.17-31.64,37.21-31.64,37.21l1,6.82c8-7.05,27-9.61,41.38-15.65s4.23-15,4.23-15-1.83-1.47,1.54-5.77S494.06,604.28,494.06,604.28Z"/><path class="cls-12" d="M458.82,590.65c-2.11-10.12,1.28-8.53,1.84-11.45s-.84-8.87-.84-8.87c-11,2.33-11.74,13.71-11.74,13.71-.34,5.72-7.22,17.26-15.54,29.25a.84.84,0,0,0,.39.1C438.55,613.42,460.93,600.77,458.82,590.65Z"/><path class="cls-12" d="M448.08,584s.77-11.38,11.74-13.71c0,0,1.63-8.93-6.51-10.34s-10.85,7.73-10.85,7.73-5.9,12-14.39,10.67-9.13,8.9-9.13,8.9,3.75,15.37-2.81,15.34-6.56-1-6.56-1-7.7-1.12-3.56,7.62.9,21,.9,21-2.64,9.5-6.47,11.94-15.3,5-14.89,9.08,17.08,1.16,17.08,1.16,16.75-20.15,29.91-39.15C440.86,601.3,447.74,589.76,448.08,584Z"/><path class="cls-14" d="M519.6,287.59s.76,18.92,4.39,32l14-3s.22-22.31.51-23.41C539.31,290.26,519.6,287.59,519.6,287.59Z"/><path class="cls-14" d="M532.78,278.93s-11.65-2.64-15.41,4.7,5.06,12.45,5.06,12.45,11.29,5.55,18.52-1.58S537.05,279.2,532.78,278.93Z"/><path class="cls-15" d="M544.26,273.2c1.66,8.25-2.36,9.61-7.77,10.9s-10.73-1.5-11.85-6.23,2-8.84,7.78-9.82C537.24,267.22,543.3,268.43,544.26,273.2Z"/><path class="cls-14" d="M475.74,321.09s1.82-5.56,5.55-2.11,6.41,16,6.41,16l4.79.77,2.3-34s-3.45-4-5-3.83-1.72,2-1.34,5.17-3,1.82-3,1.82-15.32.38-17.33,6.32S471,326,475.74,321.09Z"/><ellipse class="cls-15" cx="475.83" cy="306.68" rx="9.96" ry="8.86"/><path class="cls-12" d="M558.51,338.43c.07-3.21-1.9-6.63-4.17-6.18s-9.76-4.17-7.5-10.2.66-15.73.66-15.73-6-13.22-13.71-1.24c0,0-10.72,24.26-13.17,57.48,7-38.3,23-52.94,23-52.94s-16,14.64-23,52.94c-1.3,17.62-.27,37.77,5.93,58.16,0,0,1.58,2.73-1.38,7a24.91,24.91,0,0,0-3.81,8.26s-.73,5.79,4.9,7.36c0,0,2.69-.37,4.94-5a4.89,4.89,0,0,1,3.13-.9c2.19,0,4.31-7.21,4.31-7.21s.5-4,7.67-5.19c15.79-2.72,14.06-5.78,14.06-5.78s-.38-4-6.16-4.86c-3.83-.56-3.77-9.68-3.77-9.68s-.48-7.23-2.85-7.15-3.39,2.61-2.15-2.82c1-4.22,7.9-3.56,15.7-19.15,4-8.05-6.43-13.81-10.53-12.83s-2.46-2.81-2.46-2.81S558.43,341.64,558.51,338.43Z"/><path class="cls-12" d="M529.85,327s.69-7.6-2-10.63c-2-2.19-6.5-2.44-14.66-15s-13.51-7.51-13.51-7.51c-9.3,16.55-10.27,17.29-10.16,22.31a17.32,17.32,0,0,0,3.35,9.18c-6.18,6.77-2.34,16.19-2.34,16.19-7.66,31.37,17.33,83.53,19.71,86.36s7.06,3.45,8.32,3,4-4.21,3.47-5.84,0-8.12,0-8.12,0-11.32-10.41-46.84-2.73-63.43-2.73-63.43-7.63,27.92,2.73,63.43S522.05,417,522.05,417l4.62,1.88c-.76-10.47,9.76-25.44,13.57-40.31S531,366.32,531,366.32s-2.24.57-3.62-4.63S529.85,327,529.85,327Z"/><path class="cls-12" d="M496.86,341.89c-9.22-4.26-6-6-7.95-8.16s-7.49-4.53-7.49-4.53c-4.59,10,3.94,17.29,3.94,17.29,4.31,3.61,9.38,15.8,14,29.38a.68.68,0,0,0,.3-.24C503,371.21,506.08,346.15,496.86,341.89Z"/><path class="cls-12" d="M485.36,346.49s-8.53-7.28-3.94-17.29c0,0-6.09-6.52-12-.92s-.25,13.08-.25,13.08,6,11.69,0,17.61,1.67,12.4,1.67,12.4,14.32,6.05,10.45,11.21-4.6,4.6-4.6,4.6-5.4,5.42,3.92,7.28S497.7,406,497.7,406s5.95,7.65,5.62,12.09-5,15-1.56,17.07,10.92-12.79,10.92-12.79-6.08-25-13.35-46.53C494.74,362.29,489.67,350.1,485.36,346.49Z"/><path class="cls-14" d="M496.8,416s-.57,1-3.83.38c0,0-.86.29.1,2.11a9.86,9.86,0,0,1,.57,4.79s-.19,7.75,3.83,11.77c0,0,3.73,5.08-2.39,6.13l-6.8-10.53s-2-4-5.27-.86-2.29,4.69-2.29,4.69l-4.6-.38s.29-2-.77-2.3a3.42,3.42,0,0,1-2.49-3.45c.2-1.91.2-13.11.2-13.11s17.23,4,18.38-2.49,1.15-5.37,3.35-5.65S502.45,409.84,496.8,416Z"/><ellipse class="cls-15" cx="479.95" cy="411.85" rx="10.15" ry="8.23"/><path class="cls-14" d="M534.84,410s-4.34,17.62-3.83,31.15l15.07,1.28s4.59-26,5.61-26.55S534.84,410,534.84,410Z"/><path class="cls-16" d="M550.67,403.14s-10.72-5.36-16.08,1,2,13.53,2,13.53,9.7,8.17,18.38,2.81S554.76,404.42,550.67,403.14Z"/><ellipse class="cls-15" cx="552.08" cy="401.74" rx="10.09" ry="8.81"/><path class="cls-12" d="M557.89,467.29c1-3.06,0-6.89-2.3-7.08s-8.24-6.71-4.41-11.88,5-14.93,5-14.93-2.1-14.37-12.83-5c0,0-17,20.35-28.52,51.61,17.3-34.88,36.76-44.53,36.76-44.53s-19.46,9.65-36.76,44.53c-6.11,16.58-10.68,36.23-10.35,57.54,0,0,.77,3.06-3.26,6.32a24.74,24.74,0,0,0-5.93,6.89s-2.3,5.36,2.68,8.43c0,0,2.68.38,6.13-3.45a4.82,4.82,0,0,1,3.25,0c2.11.57,6.13-5.75,6.13-5.75s2.87-7.08,8.81-2.87,12.25-2.49,12.25-2.49,1.92-4.21-1.72-5.55-1-10.34-1-10.34,1.53-7.09-.76-7.66-6.58-2.8-1.54-5.17c6.13-2.87,11.33-.86,18.2-13.21,5.74-10.34-1.54-12.64-5.75-12.83s0-4.79,0-4.79S556.93,470.35,557.89,467.29Z"/><path class="cls-12" d="M534.14,448.52s3.64-7.46.58-10.14-4.41-5-8.05-19.54-10.34-11.49-10.34-11.49c-14.17,12.64-15.32,13-16.85,17.81a17.39,17.39,0,0,0,.19,9.77c-8,4.4-7.47,14.55-7.47,14.55-17.42,27.19-10.72,84.64-9.38,88.09s5.55,5.55,6.9,5.55,5.17-2.68,5.17-4.4,2.68-7.66,2.68-7.66,3.63-10.73,5.36-47.68,18-60.9,18-60.9-16.28,23.94-18,60.9-5.36,47.68-5.36,47.68l4.78,1.34c2.68-10.15,16.47-19,24.9-31.79s-4.79-14.55-4.79-14.55-2.3-.2-1.92-5.56S534.14,448.52,534.14,448.52Z"/><path class="cls-12" d="M498,456.76c-7.28-7.09-3.64-7.66-4.79-10.34s-5.55-6.77-5.55-6.77c-7.66,7.92-2,17.62-2,17.62,2.86,4.84,3.58,18,3.4,32.36a.75.75,0,0,0,.36-.13C493.93,486.44,505.23,463.84,498,456.76Z"/><path class="cls-12" d="M485.57,457.27s-5.62-9.7,2-17.62c0,0-3.58-8.17-11-4.85s-4.6,12.26-4.6,12.26,1.79,13-5.87,16.59-2.55,12.26-2.55,12.26,11.49,10.47,6.13,14-5.88,2.81-5.88,2.81-6.89,3.32,1.28,8.17,12.26,16.59,12.26,16.59,3.06,9.2,1.27,13.28-9.7,12.51-7.15,15.58S486.08,538,486.08,538s2.59-25.61,2.89-48.32C489.15,475.29,488.43,462.11,485.57,457.27Z"/><path class="cls-12" d="M420.4,623s4,14.75-22.22,40.6l-8-15.13S405.27,624.69,420.4,623Z"/><path class="cls-12" d="M436.86,632.45s-2.1,11-19.67,24.56c-14.38,11.08-8.47,14.89-8.47,14.89s-11.69-13.79-9.58-18S426.52,630.15,436.86,632.45Z"/><path class="cls-11" d="M91.46,496.21S58.27,518.93,76,552.76c0,0,18.9,26.68,17.88,30.25l4.4.71S99.57,498.31,91.46,496.21Z"/><path class="cls-11" d="M101.54,548.67s-6.89,11.88-23,1.15c0,0-8.43-2.3-1.54,8.81,0,0,.26,2.68,6.13-1.15,0,0,2.68,1.41,4.73,13.28,1.93,11.22,18.25,4.72,18.25,4.72S99.25,557.1,101.54,548.67Z"/><path class="cls-13" d="M41.23,570.69c11.87-7.08,36.19,6.71,36.19,6.71-1.93-.6-3.81,1.85-5.45,5.3-6.15-4.73-18.11-5.11-18.11-5.11s12,.38,18.11,5.11c-3.07,6.49-5.28,16.53-5.28,16.53C31.46,578.93,41.23,570.69,41.23,570.69Z"/><path class="cls-13" d="M47.54,574.91s1.35,9.38-.38,12.44c0,0-8.43,3.41-6.89,3.45,6.51.19,32.17,9.77,34.08,14S63.82,588.89,47.54,574.91Z"/><path class="cls-17" d="M59.68,633.63c-2.55-2-3.92-5.82-2.09-7.29s3.14-10.34-3-12.53c-5.33-1.89-10.92-7.8-12.35-9.38a3.14,3.14,0,0,1-.58-.94c-1-2.45-4.36-12.4,7.93-11a2.94,2.94,0,0,1,.59.12,152.07,152.07,0,0,1,14.95,5.64,3.22,3.22,0,0,1-1.86,6.12c-10.43-2-16.3-1.18-16.3-1.18s21.84-2.91,56.18,16.59a2.2,2.2,0,0,1,.32.21c14.45,10.43,30,22.53,41.81,40.46a8.22,8.22,0,0,1,.48,1.19,10,10,0,0,0,5.36,4.41,78,78,0,0,0,8.23,2.29,3.15,3.15,0,0,1,1.42.72,6.77,6.77,0,0,1,2.38,6.27,3.24,3.24,0,0,1-2.43,2.61,10.36,10.36,0,0,1-4.39,0,3.14,3.14,0,0,0-2.45.55,6.85,6.85,0,0,0-1.18,1.1c-1.29,1.5-7-.74-8.2-1.26a2.1,2.1,0,0,1-.42-.22c-1.07-.64-6.54-3.54-8.89,2.7-2.12,5.61-8.5,5.33-10.87,5a3.11,3.11,0,0,1-1.68-.75c-1-.92-2.54-2.81-.92-5.07,2.17-3-4.18-8.52-5-9.2l-.17-.16c-.69-.68-5.11-5.16-3.62-6.81s4-6.11-1.65-5.24c-6.8,1.06-10.05,5.72-22.87-.81-10.73-5.46-5.89-11.54-2.44-14.1,3.17-2.35-1.81-3.8-2.62-4l-.2,0C81.57,639.31,62.13,635.59,59.68,633.63Z"/><path class="cls-17" d="M68.29,604.28S61,600,62,596s.89-6.71-4.31-21.06,2.19-15.58,2.19-15.58c19.15,2.61,20.34,2.28,24.35,5.45a17.67,17.67,0,0,1,5.4,8.35c9.29-.85,14.58,8,14.58,8,30.17,13,57.18,65.36,58,69s-1.53,7.84-2.66,8.61-5.89.67-6.87-.78-6.62-4.94-6.62-4.94-9.17-7-31.64-37.21-49.83-41.17-49.83-41.17S92,585.73,114.46,616s31.64,37.21,31.64,37.21l-1,6.82c-8-7.05-27-9.61-41.38-15.65s-4.24-15-4.24-15,1.83-1.47-1.54-5.77S68.29,604.28,68.29,604.28Z"/><path class="cls-17" d="M103.52,590.65c2.12-10.12-1.28-8.53-1.83-11.45s.84-8.87.84-8.87c11,2.33,11.74,13.71,11.74,13.71.33,5.72,7.22,17.26,15.53,29.25a.77.77,0,0,1-.38.1C123.8,613.42,101.41,600.77,103.52,590.65Z"/><path class="cls-17" d="M114.27,584s-.78-11.38-11.74-13.71c0,0-1.63-8.93,6.51-10.34s10.84,7.73,10.84,7.73,5.9,12,14.4,10.67,9.12,8.9,9.12,8.9-3.74,15.37,2.82,15.34,6.55-1,6.55-1,7.71-1.12,3.57,7.62-.91,21-.91,21,2.64,9.5,6.47,11.94,15.31,5,14.89,9.08-17.07,1.16-17.07,1.16S143,632.29,129.8,613.29C121.49,601.3,114.6,589.76,114.27,584Z"/><path class="cls-14" d="M86.61,321.09s-1.82-5.56-5.55-2.11-6.42,16-6.42,16l-4.79.77-2.29-34s3.44-4,5-3.83,1.73,2,1.34,5.17,3,1.82,3,1.82,15.32.38,17.33,6.32S91.4,326,86.61,321.09Z"/><ellipse class="cls-15" cx="86.51" cy="306.68" rx="9.96" ry="8.86"/><path class="cls-14" d="M42.74,287.59s-.76,18.92-4.39,32l-14-3s-.22-22.31-.51-23.41C23,290.26,42.74,287.59,42.74,287.59Z"/><path class="cls-14" d="M29.56,278.93s11.65-2.64,15.42,4.7-5.06,12.45-5.06,12.45-11.3,5.55-18.53-1.58S25.3,279.2,29.56,278.93Z"/><path class="cls-15" d="M18.09,273.2c-1.66,8.25,2.35,9.61,7.77,10.9s10.72-1.5,11.85-6.23-2.05-8.84-7.78-9.82C25.1,267.22,19.05,268.43,18.09,273.2Z"/><path class="cls-17" d="M3.84,338.43c-.08-3.21,1.9-6.63,4.16-6.18s9.76-4.17,7.51-10.2-.66-15.73-.66-15.73,6-13.22,13.7-1.24c0,0,10.73,24.26,13.17,57.48-7-38.3-23-52.94-23-52.94s16,14.64,23,52.94c1.3,17.62.27,37.77-5.93,58.16,0,0-1.58,2.73,1.39,7A24.75,24.75,0,0,1,41,436s.73,5.79-4.9,7.36c0,0-2.68-.37-4.94-5a4.86,4.86,0,0,0-3.13-.9c-2.18,0-4.3-7.21-4.3-7.21s-.5-4-7.68-5.19C.25,422.29,2,419.23,2,419.23s.38-4,6.16-4.86c3.84-.56,3.78-9.68,3.78-9.68s.48-7.23,2.85-7.15,3.38,2.61,2.15-2.82C16,390.5,9,391.16,1.2,375.57c-4-8.05,6.43-13.81,10.54-12.83s2.46-2.81,2.46-2.81S3.91,341.64,3.84,338.43Z"/><path class="cls-17" d="M32.49,327s-.69-7.6,2-10.63c2-2.19,6.5-2.44,14.67-15s13.51-7.51,13.51-7.51C72,310.42,73,311.16,72.86,316.18a17.41,17.41,0,0,1-3.35,9.18c6.17,6.77,2.34,16.19,2.34,16.19,7.65,31.37-17.33,83.53-19.72,86.36s-7.05,3.45-8.32,3-4-4.21-3.46-5.84S40.3,417,40.3,417s0-11.32,10.4-46.84,2.74-63.43,2.74-63.43,7.63,27.92-2.74,63.43S40.3,417,40.3,417l-4.63,1.88c.76-10.47-9.76-25.44-13.56-40.31s9.25-12.21,9.25-12.21,2.23.57,3.61-4.63S32.49,327,32.49,327Z"/><path class="cls-17" d="M65.48,341.89c9.22-4.26,6-6,8-8.16s7.49-4.53,7.49-4.53c4.58,10-3.94,17.29-3.94,17.29-4.31,3.61-9.38,15.8-14,29.38a.71.71,0,0,1-.31-.24C59.4,371.21,56.26,346.15,65.48,341.89Z"/><path class="cls-17" d="M77,346.49s8.52-7.28,3.94-17.29c0,0,6.09-6.52,12-.92s.26,13.08.26,13.08-6,11.69,0,17.61-1.67,12.4-1.67,12.4S77.18,377.42,81,382.58s4.61,4.6,4.61,4.6,5.39,5.42-3.93,7.28S64.64,406,64.64,406,58.7,413.68,59,418.12s5,15,1.56,17.07S49.66,422.4,49.66,422.4s6.08-25,13.36-46.53C67.61,362.29,72.68,350.1,77,346.49Z"/><path class="cls-14" d="M65.54,416s.58,1,3.83.38c0,0,.87.29-.09,2.11s-.58,4.79-.58,4.79S68.9,431,64.87,435c0,0-3.73,5.08,2.4,6.13l6.8-10.53s2-4,5.26-.86,2.3,4.69,2.3,4.69l4.6-.38s-.29-2,.76-2.3a3.42,3.42,0,0,0,2.49-3.45c-.19-1.91-.19-13.11-.19-13.11s-17.23,4-18.38-2.49-1.15-5.37-3.35-5.65S59.9,409.84,65.54,416Z"/><ellipse class="cls-15" cx="82.4" cy="411.85" rx="10.15" ry="8.23"/><path class="cls-14" d="M27.5,410s4.34,17.62,3.83,31.15l-15.06,1.28s-4.6-26-5.62-26.55S27.5,410,27.5,410Z"/><path class="cls-16" d="M11.67,403.14s10.73-5.36,16.09,1-2,13.53-2,13.53S16,425.86,7.33,420.5,7.59,404.42,11.67,403.14Z"/><ellipse class="cls-15" cx="10.27" cy="401.74" rx="10.09" ry="8.81"/><path class="cls-17" d="M4.46,467.29c-1-3.06,0-6.89,2.3-7.08s8.23-6.71,4.4-11.88-5-14.93-5-14.93S8.29,419,19,428.42c0,0,17,20.35,28.52,51.61C30.24,445.15,10.78,435.5,10.78,435.5S30.24,445.15,47.53,480c6.12,16.58,10.69,36.23,10.36,57.54,0,0-.77,3.06,3.25,6.32a24.89,24.89,0,0,1,5.94,6.89s2.29,5.36-2.68,8.43c0,0-2.68.38-6.13-3.45a4.84,4.84,0,0,0-3.26,0c-2.1.57-6.12-5.75-6.12-5.75s-2.88-7.08-8.81-2.87-12.26-2.49-12.26-2.49-1.91-4.21,1.72-5.55,1-10.34,1-10.34-1.53-7.09.77-7.66,6.58-2.8,1.53-5.17c-6.13-2.87-11.33-.86-18.19-13.21-5.75-10.34,1.53-12.64,5.74-12.83s0-4.79,0-4.79S5.42,470.35,4.46,467.29Z"/><path class="cls-17" d="M28.2,448.52s-3.63-7.46-.57-10.14,4.4-5,8-19.54S46,407.35,46,407.35c14.17,12.64,15.32,13,16.85,17.81a17.29,17.29,0,0,1-.19,9.77c8,4.4,7.47,14.55,7.47,14.55,17.43,27.19,10.72,84.64,9.38,88.09s-5.55,5.55-6.89,5.55-5.17-2.68-5.17-4.4-2.68-7.66-2.68-7.66-3.64-10.73-5.36-47.68-18-60.9-18-60.9,16.27,23.94,18,60.9,5.36,47.68,5.36,47.68L60,532.4c-2.68-10.15-16.47-19-24.89-31.79s4.79-14.55,4.79-14.55,2.29-.2,1.91-5.56S28.2,448.52,28.2,448.52Z"/><path class="cls-17" d="M64.4,456.76c7.27-7.09,3.63-7.66,4.78-10.34s5.56-6.77,5.56-6.77c7.66,7.92,2,17.62,2,17.62-2.87,4.84-3.59,18-3.4,32.36a.79.79,0,0,1-.37-.13C68.42,486.44,57.12,463.84,64.4,456.76Z"/><path class="cls-17" d="M76.78,457.27s5.62-9.7-2-17.62c0,0,3.57-8.17,11-4.85s4.59,12.26,4.59,12.26-1.79,13,5.87,16.59,2.56,12.26,2.56,12.26-11.49,10.47-6.13,14,5.87,2.81,5.87,2.81,6.89,3.32-1.28,8.17S85,517.52,85,517.52s-3.06,9.2-1.28,13.28,9.7,12.51,7.15,15.58S76.27,538,76.27,538s-2.59-25.61-2.89-48.32C73.19,475.29,73.91,462.11,76.78,457.27Z"/><path class="cls-12" d="M142,623s-4,14.75,22.21,40.6l8-15.13S157.08,624.69,142,623Z"/><path class="cls-12" d="M125.48,632.45s2.11,11,19.68,24.56c14.37,11.08,8.47,14.89,8.47,14.89s11.68-13.79,9.57-18S135.82,630.15,125.48,632.45Z"/><path class="cls-12" d="M419.36,682.23c-1.25.46-18.22,6.56-22.64,5.08-4.6-1.53-10.73,0-10.73,0-9.45,3.83-10,10.21-10.47,13.28s-4.34,4.59-8.42,5.36-21.45-6.38-34.21-7.66-32.43,11.49-32.43,11.49,19.66-12.77,32.43-11.49S363,706.72,367.1,706s7.91-2.3,8.42-5.36,1-9.45,10.47-13.28c0,0,6.13-1.53,10.73,0,4.42,1.48,21.39-4.62,22.64-5.08-.18-.66-.3-1.05-.3-1.05l-8.81-13.78-5.36-1.54.76-3.83c-2.55,3.32-19.66,11.75-25.53,12.26s-17.11,17.36-26,14.81-13.79,0-13.79,0c-18.38,7.4-27.83,3.83-27.83,3.83s9.45,3.57,27.83-3.83c0,0,4.85-2.55,13.79,0s20.17-14.3,26-14.81,23-8.94,25.53-12.26c5-8-4.59-11.48-4.59-11.48-.39-10.34-8.43-3.83-6.9-5.37s1.53-9.57,1.53-9.57c-6.12-12.64-14.17-4.6-14.17-4.6s-1.91,10.34-7.66,6.13-10.34-.38-10.34-.38.77,7.27-16.08,8.81-20.3,11.1-20.3,11.1c-19.91,13-46-6.51-46-6.51v73.53c28-21.83,29.88-1.91,29.88-1.91a169.87,169.87,0,0,1,34.46,6.89c18.39,5.75,15.71-9.57,16.09-11.49s6.89-5,6.89-5,25.28,7.65,30.64.76,13.79-8.81,19.15-13C422.78,696.42,420.29,685.64,419.36,682.23Zm-26-32.71c-28.86,28.86-31.15,10.22-31.15,10.22S364.54,678.38,393.4,649.52Zm-7.41-11c-17.1,7.4-45.7,36.76-45.7,36.76S368.89,646,386,638.55Z"/><path class="cls-12" d="M235.2,656.67s-3.44-9.57-20.29-11.1-16.09-8.81-16.09-8.81-4.59-3.83-10.34.38-7.66-6.13-7.66-6.13-8-8-14.17,4.6c0,0,0,8,1.53,9.57s-6.51-5-6.89,5.37c0,0-9.57,3.44-4.6,11.48,2.56,3.32,19.66,11.75,25.54,12.26s17.1,17.36,26,14.81,13.79,0,13.79,0c18.38,7.4,27.83,3.83,27.83,3.83s-9.45,3.57-27.83-3.83c0,0-4.86-2.55-13.79,0s-20.17-14.3-26-14.81-23-8.94-25.54-12.26l.77,3.83-5.36,1.54-8.81,13.78s-.12.39-.3,1.05c1.25.46,18.21,6.56,22.64,5.08,4.6-1.53,10.72,0,10.72,0,9.45,3.83,10,10.21,10.47,13.28s4.34,4.59,8.43,5.36,21.44-6.38,34.21-7.66,32.43,11.49,32.43,11.49S242.23,697,229.46,698.29s-30.13,8.43-34.21,7.66-7.92-2.3-8.43-5.36-1-9.45-10.47-13.28c0,0-6.12-1.53-10.72,0-4.43,1.48-21.39-4.62-22.64-5.08-.93,3.41-3.43,14.19,1.07,17.72,5.36,4.21,13.78,6.13,19.14,13s30.64-.76,30.64-.76,6.51,3.06,6.9,5-2.3,17.24,16.08,11.49a169.89,169.89,0,0,1,34.47-6.89s1.91-19.92,29.87,1.91V650.16S255.12,669.69,235.2,656.67ZM169,649.52c28.85,28.86,31.15,10.22,31.15,10.22S197.8,678.38,169,649.52Zm7.4-11c17.11,7.4,45.71,36.76,45.71,36.76S193.46,646,176.35,638.55Z"/><path class="cls-14" d="M382.06,628.08s-8.05-1.79-6.77-8.56,9.32-6.76,9.32-6.76,15.83-1.66,11.11,11-5.49,18.64-5.49,18.64l-8.56.63S382.44,630.5,382.06,628.08Z"/><ellipse class="cls-15" cx="386.4" cy="616.01" rx="7.66" ry="6.45"/><ellipse class="cls-15" cx="444.01" cy="669.73" rx="8.72" ry="9.82" transform="translate(-359.53 666.1) rotate(-56.2)"/><ellipse class="cls-15" cx="530.73" cy="527.83" rx="8.21" ry="9.82" transform="matrix(0.32, -0.95, 0.95, 0.32, -139.54, 861.01)"/><path class="cls-14" d="M178.29,628.08s8-1.79,6.77-8.56-9.32-6.76-9.32-6.76-15.83-1.66-11.11,11,5.49,18.64,5.49,18.64l8.55.63S177.91,630.5,178.29,628.08Z"/><ellipse class="cls-15" cx="173.95" cy="616.01" rx="7.66" ry="6.45"/><ellipse class="cls-15" cx="116.33" cy="669.73" rx="9.82" ry="8.72" transform="translate(-352.93 177.93) rotate(-33.8)"/><ellipse class="cls-15" cx="29.61" cy="527.83" rx="9.82" ry="8.21" transform="translate(-167.89 37.45) rotate(-18.73)"/><ellipse class="cls-15" cx="279.89" cy="654.79" rx="10.43" ry="8.78"/><ellipse class="cls-15" cx="283.53" cy="726.79" rx="8.83" ry="7.76"/><path class="cls-7" d="M443.59,504.76c-14.3,1.53-18.39-1.53-18.39-1.53,5.37,11.23,18,18.44,21.83,19s2.3,2.68,2.3,2.68c-3.44,7.85-100,43.66-106.08,45.19s-3.07,9.38-3.07,9.38l2.11,8.62c-19.73,8.22-57.57,9.11-61,9.17s-41.3-.95-61-9.17l2.1-8.62s3.07-7.85-3.06-9.38S116.65,532.78,113.2,524.93c0,0-1.53-2.11,2.3-2.68s16.47-7.79,21.83-19c0,0-4.08,3.06-18.38,1.53s-20.94.51-20.94.51v60.25s50.56,29.11,89.88,36.77l3.06.77L188,625.91s24.27,19.53,93,22.11v0h.51v0c68.74-2.58,93-22.11,93-22.11l-2.93-22.85,3.06-.77c39.32-7.66,89.87-36.77,89.87-36.77V505.27S457.89,503.23,443.59,504.76Z"/><path class="cls-18" d="M104.78,527.23l1,34.08s33.89,25.28,85.59,36.38l4.21-16.08s.2-3,3.93-4.4l11.68-4.5S142.5,553.08,104.78,527.23Z"/><path class="cls-19" d="M457.15,527.23l-1,34.08s-33.89,25.28-85.59,36.38l-4.21-16.08s-.2-3-3.93-4.4l-11.68-4.5S419.43,553.08,457.15,527.23Z"/><path class="cls-20" d="M281.33,642.87c49.64-.85,85-19.13,85-19.13l-5.87-34.47c-31.16,14.59-76.45,16-79.27,16.07-2.81-.08-48.1-1.48-79.26-16.07l-5.87,34.47s35.35,18.28,85,19.13h.27Z"/><path class="cls-3" d="M128.82,563.58a6.86,6.86,0,0,1-2.88-1.06,5.09,5.09,0,0,1-2.53-3.17,5.26,5.26,0,0,1,.75-4,5.58,5.58,0,0,1,3.45-2.72,5.42,5.42,0,0,1,4.3.7,7.18,7.18,0,0,1,2,1.68l-1.11,1.87a4.75,4.75,0,0,0-1.77-1.79,3.24,3.24,0,0,0-2.64-.42,3.68,3.68,0,0,0-2.13,1.75,3.55,3.55,0,0,0-.52,2.61,3.12,3.12,0,0,0,1.56,2,5,5,0,0,0,2.56.73Z"/><path class="cls-3" d="M137.5,556.65l-5,9.31-2-1.07,5-9.32Z"/><path class="cls-3" d="M140.45,570l-5.62-2.79,4.71-9.48,5.4,2.67-.82,1.66-3.38-1.68-1.11,2.24,3.14,1.55-.82,1.65-3.14-1.55-1.13,2.29,3.59,1.79Z"/><path class="cls-3" d="M151,574.62l-2.13-.91-1.41-8.07a8.58,8.58,0,0,1-.12-1h0a15.36,15.36,0,0,1-.61,1.57l-2.38,5.54-2-.85,4.18-9.73,2.26,1,1.34,7.82c.09.52.14.85.15,1h0a9.72,9.72,0,0,1,.52-1.37l2.38-5.54,2,.84Z"/><path class="cls-3" d="M160.82,577.83a6.76,6.76,0,0,1-3-.49,5.07,5.07,0,0,1-3.09-2.63,5.21,5.21,0,0,1,0-4.07,5.59,5.59,0,0,1,2.87-3.33,5.38,5.38,0,0,1,4.35-.12,7.18,7.18,0,0,1,2.3,1.26l-.74,2a4.72,4.72,0,0,0-2.07-1.42,3.25,3.25,0,0,0-2.67.09,3.63,3.63,0,0,0-1.76,2.12,3.55,3.55,0,0,0,0,2.66,3.12,3.12,0,0,0,1.92,1.7,5.06,5.06,0,0,0,2.66.24Z"/><path class="cls-3" d="M168.05,569.39l-3.19,10.1-2.15-.68,3.19-10.1Z"/><path class="cls-3" d="M176.35,582.67,174,582l-.15-2.55-3.72-1-1.37,2.14-2.37-.62,6.47-9.24,2.56.68Zm-2.59-5-.23-3.85a4.28,4.28,0,0,1,.08-.94h-.06a3.43,3.43,0,0,1-.41.81L171,577Z"/><path class="cls-3" d="M379.16,584.41a4.11,4.11,0,0,0,2.86.26,2.21,2.21,0,0,0,1.17-.61.87.87,0,0,0,.23-.84,1.07,1.07,0,0,0-.53-.65,6.3,6.3,0,0,0-2-.47c-1.65-.24-2.64-1-2.95-2.16a2.48,2.48,0,0,1,.46-2.33,4.68,4.68,0,0,1,2.48-1.43,6.84,6.84,0,0,1,2.44-.26l.5,1.9a4.1,4.1,0,0,0-2.41-.06,2.46,2.46,0,0,0-1.13.59.86.86,0,0,0-.25.85.94.94,0,0,0,.48.6,6.05,6.05,0,0,0,1.74.44,5.2,5.2,0,0,1,2.29.77,2.62,2.62,0,0,1,.95,1.47,2.52,2.52,0,0,1-.42,2.34,4.67,4.67,0,0,1-2.57,1.44,6,6,0,0,1-2.81.18Z"/><path class="cls-3" d="M395.88,582.26l-2.19.65L392.34,581l-3.42,1-.05,2.37-2.18.65.65-10.45,2.36-.71Zm-4.47-2.71-2-2.95a3.63,3.63,0,0,1-.39-.77h-.06a3.53,3.53,0,0,1,.07.85l-.09,3.61Z"/><path class="cls-3" d="M403.38,579.41a6.47,6.47,0,0,1-2.49,1.37,4.7,4.7,0,0,1-3.77-.16,4.84,4.84,0,0,1-2.35-3,5.26,5.26,0,0,1,.19-4.08,5.11,5.11,0,0,1,3.11-2.59,6.62,6.62,0,0,1,2.41-.39l.63,1.92a4.44,4.44,0,0,0-2.33.15,3,3,0,0,0-1.9,1.6,3.38,3.38,0,0,0-.06,2.55,3.29,3.29,0,0,0,1.5,2,2.9,2.9,0,0,0,2.39.14,4.56,4.56,0,0,0,2.07-1.35Z"/><path class="cls-3" d="M412.68,576.43l-2.27.82-2.32-1.88a4,4,0,0,0-1.08-.69,1.08,1.08,0,0,0-.69,0l-.59.21,1.3,3.58-2,.72L401.7,570l3.24-1.18q3.3-1.2,4.21,1.31a2.57,2.57,0,0,1,0,1.81,3,3,0,0,1-1.17,1.5v0a3.51,3.51,0,0,1,1.92.89Zm-8.47-5.69,1,2.66,1-.35a1.64,1.64,0,0,0,1-.81,1.42,1.42,0,0,0,.06-1.16c-.31-.83-1-1.07-1.95-.71Z"/><path class="cls-3" d="M411.9,566.14l3.58,9.16-2,.77L410,566.91Z"/><path class="cls-3" d="M419.59,564.83l-3.24,1.36,1,2.33,3-1.25.66,1.59-3,1.24,1.5,3.58-1.94.81-3.78-9.08,5.17-2.16Z"/><path class="cls-3" d="M422.06,561.84l4,9-1.91.85-4-9Z"/><path class="cls-3" d="M434.47,566.42a6.37,6.37,0,0,1-2.28,1.7,4.73,4.73,0,0,1-3.75.35,4.87,4.87,0,0,1-2.73-2.62,5.2,5.2,0,0,1-.36-4.06,5,5,0,0,1,2.73-3,6.39,6.39,0,0,1,2.34-.72l.88,1.82a4.32,4.32,0,0,0-2.28.46,3,3,0,0,0-1.67,1.84,3.34,3.34,0,0,0,.28,2.54,3.24,3.24,0,0,0,1.75,1.73,2.91,2.91,0,0,0,2.38-.17,4.69,4.69,0,0,0,1.87-1.62Z"/><path class="cls-3" d="M433.55,556.15l4.64,8.67-1.85,1-4.64-8.67Z"/><path class="cls-3" d="M437.47,559.84a5.27,5.27,0,0,1-.79-3.91,4.66,4.66,0,0,1,2.3-3.09,4.39,4.39,0,0,1,3.63-.55,5.11,5.11,0,0,1,3,2.42,5.21,5.21,0,0,1,.79,3.88,5,5,0,0,1-5.91,3.63A5,5,0,0,1,437.47,559.84Zm1.83-1.23a3.77,3.77,0,0,0,1.8,1.65,2.26,2.26,0,0,0,2.1-.21,2.29,2.29,0,0,0,1.19-1.73,3.7,3.7,0,0,0-.63-2.37,4,4,0,0,0-1.83-1.73,2.21,2.21,0,0,0-2.07.21,2.31,2.31,0,0,0-1.18,1.78A3.71,3.71,0,0,0,439.3,558.61Z"/><path class="cls-3" d="M256.68,632.46l-10.62-1.62,2.73-17.94L259,614.46l-.48,3.12-6.38-1-.65,4.23,5.93.9-.47,3.12L251,624l-.66,4.35,6.8,1ZM258.37,609l-4.47,3.46-2.71-.41,3.82-3.56Z"/><path class="cls-3" d="M275.24,619l-5.16-.39L269,633.56l-3.87-.29,1.12-14.95-5.15-.39.23-3.15,14.19,1.06Z"/><path class="cls-3" d="M282.55,615.85,282.37,634l-3.87,0,.18-18.15Z"/><path class="cls-3" d="M301.41,632.55a11.9,11.9,0,0,1-5.1,1.28,8.71,8.71,0,0,1-6.65-2.05,8.94,8.94,0,0,1-2.8-6.39,9.61,9.61,0,0,1,2.25-7.19,9.31,9.31,0,0,1,6.77-3.15,12.31,12.31,0,0,1,4.48.42l.23,3.73a8.08,8.08,0,0,0-4.23-.82,5.57,5.57,0,0,0-4.14,2,6.25,6.25,0,0,0-1.32,4.53,6.07,6.07,0,0,0,1.77,4.2,5.27,5.27,0,0,0,4.18,1.38,8.57,8.57,0,0,0,4.34-1.44Z"/><path class="cls-3" d="M322.45,630l-4.16.69-2-3.88-6.5,1.08-.64,4.33-4.14.68,3.58-19,4.49-.75Zm-7.58-6-3.06-5.87a6.61,6.61,0,0,1-.54-1.51l-.1,0a6.75,6.75,0,0,1-.06,1.56l-1,6.6Z"/><path class="cls-21" d="M305.8,670.46s14.17-19.53,24.32-19-3.83,14.94-3.83,14.94l-57.45,63.77s-10.72,2.93-12.44-1.86a60.9,60.9,0,0,0,16.85-18.44c1.65-2.91-14.14,24.84-27.58,20.1,0,0-5-3.06,1.34-7.66s38.11-34.46,44.43-42.51,15.32-28.27,23.42-19.91C314.86,659.93,306.12,669,305.8,670.46Z"/><path class="cls-21" d="M259.25,671.55s-11.88-15.45-20.81-17.75c0,0-5.87-.38-.51,5.87s63.44,79,90.51,73.66c0,0,4.59-3.06-1.41-9.32s-32.8-26-32.8-26-1.39-1.16-1.39-2.3c0-2.68-4.1-7.15-9.08-8.42s-14.43-17.75-14.43-17.75-10.34-17.23-19.66-8.93l-.24.26Z"/><path class="cls-22" d="M282,0h-.27c-186,2.84-252,194.3-252,194.3l61.49,30.26C145.88,70.34,275.07,70.72,281.68,70.84H282c6.61-.12,135.8-.5,190.51,153.73L534,194.31S468,2.85,282,0Z"/><path class="cls-23" d="M476.89,213.47C420.46,67.14,296.88,62.84,282.73,62.84h-6.47l-.06.15c-14.1.67-44.58,4.26-78.78,21.46-50.21,25.25-87.42,68.64-110.68,129l-47-23.1a350.39,350.39,0,0,1,52.67-87.32c22.48-27.12,48-48.83,75.8-64.52C202.84,19,241.21,8.74,282.31,8c40.87.72,79,11,113.48,30.5,27.69,15.7,53.09,37.41,75.5,64.52a351.51,351.51,0,0,1,52.56,87.33Z"/><path class="cls-24" d="M282,70.62v0h-.3v0c-129.73,6.81-176,120.24-176,120.24l39.95,17.88c50.29-101.12,130.63-98.14,136-97.82v0h.3v0c5.42-.32,85.76-3.3,136.05,97.82L458,190.86S411.68,77.43,282,70.62Z"/><path class="cls-25" d="M113.66,187.87a213.47,213.47,0,0,1,36-50.78,197.39,197.39,0,0,1,52.75-39.61c24.1-12.32,50.8-19.34,79.38-20.86h0c28.68,1.52,55.47,8.59,79.64,21a197.28,197.28,0,0,1,52.81,39.81A212.75,212.75,0,0,1,450,187.87l-29.2,13.06c-19.82-37.78-46-65.08-77.89-81.19-26.6-13.45-49.4-14.9-58-14.9-1.42,0-2.47,0-3.07.07h0c-.6,0-1.64-.07-3.07-.07-8.57,0-31.38,1.45-58,14.9-31.88,16.12-58.06,43.42-77.88,81.19Z"/><path class="cls-26" d="M131.43,179.89a31.49,31.49,0,0,1,2.17-4.19c1.47-2.43,2.79-3.72,4.42-4.45a6.46,6.46,0,0,1,6.26.65,7.36,7.36,0,0,1,3.88,5.38c.24,2.05-.54,4.42-2,6.9a27.48,27.48,0,0,1-2.25,3.25Zm12,2.65a4.37,4.37,0,0,0,.48-.69c1.36-2.19,1.14-4.55-1.72-6.28-2.48-1.5-4.54-.73-5.78,1.31a5.36,5.36,0,0,0-.54,1.08Z"/><path class="cls-26" d="M142.37,162.5,154.51,171l-2.28,3.25-12.14-8.52Z"/><path class="cls-26" d="M144.61,159.68a31.55,31.55,0,0,1,2.71-4c1.4-1.78,2.65-2.87,4-3.23a3.81,3.81,0,0,1,3.45.85,4,4,0,0,1,1.25,4.21l.06,0a3.77,3.77,0,0,1,3.26.15c1.46.58,3.46,1.53,4.08,1.66l-2.51,3.19a18.7,18.7,0,0,1-3.32-1.29c-1.65-.79-2.27-.59-3,.38l-.4.5,4.37,3.44-2.43,3.09Zm7.31.75.64-.81c.93-1.18.88-2.31,0-3s-1.82-.51-2.65.53a7,7,0,0,0-.76,1.1Z"/><path class="cls-26" d="M166.37,147.22l-3.57,3.95,2,1.84,4-4.43,2.41,2.18-6.65,7.37-11-9.94,6.45-7.14,2.41,2.18-3.79,4.19,1.78,1.6,3.57-4Z"/><path class="cls-26" d="M180.49,141.17a9.72,9.72,0,0,1-2.26,3c-4,3.85-8.15,3.06-10.89.22-3.64-3.76-2.73-8.33.46-11.41a8.68,8.68,0,0,1,3.12-2.1l1.61,2.79a7,7,0,0,0-2.34,1.52,4.37,4.37,0,0,0,6.13,6.24,8.17,8.17,0,0,0,1.61-2.15Z"/><path class="cls-26" d="M190.08,133.1a9.91,9.91,0,0,1-2.47,2.86c-4.26,3.57-8.34,2.49-10.88-.54-3.36-4-2.13-8.51,1.26-11.35a8.74,8.74,0,0,1,3.27-1.87l1.41,2.89a7.08,7.08,0,0,0-2.45,1.35,4.38,4.38,0,0,0,5.68,6.66,8.48,8.48,0,0,0,1.76-2Z"/><path class="cls-26" d="M186.45,117.86l8.84,11.91-3.19,2.36-8.84-11.91Z"/><path class="cls-26" d="M205.15,114.2c2.56,4,1.78,8.12-2.08,10.58s-7.86.92-10.08-2.55c-2.32-3.64-1.78-8,2.06-10.49C199.07,109.17,203,110.85,205.15,114.2Zm-8.5-7.43-.74,3.76-2.66,1.7v-3.3Zm-.15,13.14c1.5,2.35,3.44,3.14,5,2.12s1.57-3.21.13-5.46-3.37-3.17-5-2.14S195,117.61,196.5,119.91Z"/><path class="cls-26" d="M211,119.63l-6.67-13.25,4.19-2.1,4.15,3a44.11,44.11,0,0,1,4.41,3.6l.06,0a53,53,0,0,1-3.07-5.44l-1.58-3.13,3.24-1.63,6.67,13.25-3.75,1.88-4.46-3.27c-1.44-1-3.19-2.38-4.63-3.67l-.07,0c1,1.74,2,3.71,3.12,5.87l1.63,3.25Z"/><path class="cls-26" d="M224.17,97.28a31.18,31.18,0,0,1,4.35-1.83c2.69-.93,4.53-1.07,6.25-.59a6.51,6.51,0,0,1,4.39,4.52,7.37,7.37,0,0,1-.47,6.62c-1.13,1.73-3.25,3-6,4a25.69,25.69,0,0,1-3.81,1.05ZM231.7,107a4.19,4.19,0,0,0,.81-.23c2.45-.8,3.79-2.76,2.7-5.92-.94-2.74-3-3.47-5.27-2.7a5.24,5.24,0,0,0-1.11.49Z"/><path class="cls-26" d="M251.3,98.29l-5.18,1.24.64,2.66,5.79-1.39.75,3.16-9.65,2.31L240.2,91.85l9.35-2.24.76,3.16-5.5,1.31.56,2.33,5.18-1.24Z"/><path class="cls-26" d="M259.63,98.85a9.1,9.1,0,0,0,3.93.45c1.35-.17,2-.72,1.87-1.46s-.8-1-2.53-1.4c-2.59-.58-4.41-1.75-4.68-3.94-.32-2.6,1.63-4.87,5.35-5.32a9.55,9.55,0,0,1,4.07.27l-.44,3.25a7.83,7.83,0,0,0-3.28-.31c-1.2.15-1.81.67-1.73,1.31s.91,1,2.85,1.42c2.77.65,4.13,1.92,4.38,4,.31,2.55-1.4,5-5.7,5.47a10.59,10.59,0,0,1-4.44-.36Z"/><path class="cls-26" d="M275.83,97.87l-.74,3.45-4.11.12,3.9-14.94,5.29-.14,4.82,14.7-4.29.11-1-3.41Zm3.21-3-.76-2.65c-.25-.83-.56-2-.82-2.9h0c-.2.88-.38,2.11-.58,3l-.56,2.66Z"/><path class="cls-26" d="M286.71,101.13l1.18-14.78,4.67.37,2,4.72a44.41,44.41,0,0,1,1.9,5.37h.06a56.13,56.13,0,0,1,.21-6.24l.27-3.49,3.62.29-1.18,14.77-4.18-.33-2.11-5.11a58,58,0,0,1-2.06-5.54H291c-.06,2-.19,4.24-.38,6.64l-.29,3.63Z"/><path class="cls-26" d="M308.35,88.57l-2.29,14.65-3.92-.62L304.43,88Z"/><path class="cls-26" d="M312.1,89.34a30.34,30.34,0,0,1,4.66.77c2.76.65,4.39,1.51,5.59,2.83a6.5,6.5,0,0,1,1.31,6.16,7.36,7.36,0,0,1-3.93,5.35c-1.87.86-4.37.85-7.19.18a25.44,25.44,0,0,1-3.78-1.14Zm1.18,12.25a4.89,4.89,0,0,0,.81.24c2.49.62,4.67-.32,5.44-3.57.66-2.82-.7-4.55-3-5.09a5.17,5.17,0,0,0-1.2-.18Z"/><path class="cls-26" d="M328.26,105.21l-1.92,3-3.88-1.35,8.93-12.59,5,1.73-.69,15.46L331.65,110l.23-3.55Zm4.07-1.69.23-2.75c.06-.86.19-2.1.26-3h0c-.5.75-1.11,1.83-1.58,2.56l-1.48,2.29Z"/><path class="cls-26" d="M343.51,98.87a31.63,31.63,0,0,1,4.41,1.7c2.57,1.21,4,2.38,4.9,3.92a6.49,6.49,0,0,1,0,6.29,7.36,7.36,0,0,1-4.93,4.44c-2,.46-4.45-.06-7.08-1.29a26,26,0,0,1-3.47-1.89Zm-1.34,12.24a5.19,5.19,0,0,0,.75.39c2.31,1.12,4.64.65,6.05-2.38,1.23-2.63.24-4.59-1.92-5.6a4.88,4.88,0,0,0-1.14-.42Z"/><path class="cls-26" d="M363,108.68a30.81,30.81,0,0,1,4.31,2.32,7.68,7.68,0,0,1,3.36,3.5,4.42,4.42,0,0,1-.47,3.92,4.82,4.82,0,0,1-3.16,2.34,7.31,7.31,0,0,1-5-1.31c-.32-.21-.6-.42-.79-.56l-2.68,4.26-3.33-2.09Zm-.14,7.63a4.68,4.68,0,0,0,.74.53c1.31.82,2.55.66,3.23-.42s.36-2-.92-2.76a5.69,5.69,0,0,0-1.05-.55Z"/><path class="cls-26" d="M382.06,130.54c-2.89,3.8-7,4.48-10.65,1.71s-3.59-7.06-1.09-10.34c2.61-3.44,6.94-4.45,10.55-1.7C384.67,123.09,384.46,127.38,382.06,130.54Zm-8.35-6.14c-1.69,2.22-1.76,4.31-.25,5.46s3.56.36,5.17-1.76,1.81-4.27.28-5.44S375.36,122.22,373.71,124.4Z"/><path class="cls-26" d="M388.89,126.93l3,2.65-7.67,8.56,4.25,3.81-2.22,2.48L379,138Z"/><path class="cls-26" d="M400.86,138.13l-10.45,10.52-2.82-2.8L398,135.33Z"/><path class="cls-26" d="M400.13,158.59a9.81,9.81,0,0,1-3-2.36c-3.72-4.11-2.79-8.24.14-10.89,3.87-3.5,8.42-2.44,11.38.83a8.66,8.66,0,0,1,2,3.2l-2.84,1.52a7.07,7.07,0,0,0-1.44-2.4,4.37,4.37,0,0,0-6.44,5.92,8.36,8.36,0,0,0,2.1,1.69Z"/><path class="cls-26" d="M415.21,154.31l-11.51,9.35-2.5-3.08,11.51-9.35Z"/><path class="cls-26" d="M410.55,166.94l-3.28,1.33-2.4-3.33,14.55-5.18,3.09,4.29-9.45,12.26-2.51-3.48,2.24-2.78Zm4.3,1,1.76-2.12c.55-.67,1.37-1.61,1.94-2.31l0,0c-.84.33-2,.87-2.77,1.18l-2.52,1Z"/><path class="cls-26" d="M426.69,170.18l2.07,3.39-9.83,6,3,4.87-2.84,1.74-5-8.28Z"/><path class="cls-27" d="M75.16,178.46l7.42,4.08-3.23,5.88L58.94,177.19l4.43-8.07A12.65,12.65,0,0,1,66.64,165a6.58,6.58,0,0,1,3.66-1.23,7.52,7.52,0,0,1,4,1,7.12,7.12,0,0,1,3.68,4.47,8,8,0,0,1-1,6Zm-4.42-2.33,1.06-1.94c.94-1.7.73-2.93-.62-3.67s-2.35-.27-3.22,1.31L66.79,174Z"/><path class="cls-27" d="M96.61,160.21a9.44,9.44,0,0,1-6.85,4.32A12.7,12.7,0,0,1,80.93,162a13.34,13.34,0,0,1-5.62-7.1,10.09,10.09,0,0,1,8.21-12.48,12.45,12.45,0,0,1,8.68,2.45A13.25,13.25,0,0,1,98,152.23,9.27,9.27,0,0,1,96.61,160.21Zm-4.4-2.93a2.49,2.49,0,0,0,0-2.88,15.29,15.29,0,0,0-4.38-3.84q-5-3.41-6.72-.91-1.82,2.7,3.92,6.58Q90.46,159.86,92.21,157.28Z"/><path class="cls-27" d="M110.55,131.49l4.47,3.56-9.4,11.83L87.38,132.39l4.12-5.18,13.76,10.93Z"/><path class="cls-27" d="M105.73,110.47,123.09,126l-4.41,4.93L101.32,115.4Z"/><path class="cls-27" d="M130,106.27l4.6-4a9.9,9.9,0,0,1,2.5,6.75,8.77,8.77,0,0,1-2.8,5.93,8.9,8.9,0,0,1-7.27,2.71q-4.12-.36-8-4.31a14.23,14.23,0,0,1-4.35-8.11,9.47,9.47,0,0,1,9.25-10.16,11,11,0,0,1,6.6,3l-4.16,4.58a5.44,5.44,0,0,0-3-1.84,2.41,2.41,0,0,0-2.12.62q-2.24,2.18,2.51,7c1.78,1.81,3.17,2.86,4.2,3.13a2.54,2.54,0,0,0,2.58-.62C131.83,109.86,131.64,108.26,130,106.27Z"/><path class="cls-27" d="M126.9,83.76l3-7.58L133,78,129,85Zm7.87-1,15.06,17.77-5,4.28L129.72,87.05Z"/><path class="cls-27" d="M164.7,89.2l-3.67-3-4.68,3.39L158,94.06l-4.34,3.15-8.28-22.77L151,70.33l19.14,14.91Zm-10.42-4.4,2.82-2-5.37-4.45Z"/><path class="cls-27" d="M200.48,68.55,195.67,71l-9.9-6.54a40.91,40.91,0,0,1-4.21-3.26,16.91,16.91,0,0,1,2.19,3.18l5.07,10.07L184,76.84,173.55,56l5.58-2.81,8.32,5.36a34,34,0,0,1,4.05,3,35.31,35.31,0,0,1-3.2-5.23l-3.11-6.15L190,47.74Z"/><path class="cls-27" d="M217.74,61.89,215,58l-5.43,2,.35,4.75-5,1.84L203.2,42.39,209.77,40l14.31,19.58Zm-8.82-7.09,3.28-1.19-3.95-5.75Z"/><path class="cls-27" d="M237.62,47.05l6-1a9.9,9.9,0,0,1-1.31,7.08,8.75,8.75,0,0,1-5.45,3.65,8.85,8.85,0,0,1-7.62-1.4q-3.36-2.41-4.65-7.79a14.29,14.29,0,0,1,.42-9.2,8.48,8.48,0,0,1,6.16-4.93,8.37,8.37,0,0,1,7,1,11,11,0,0,1,4.11,6l-5.92,1.79a5.44,5.44,0,0,0-1.59-3.09,2.45,2.45,0,0,0-2.14-.56q-3,.73-1.46,7.33.88,3.7,2,4.84a2.53,2.53,0,0,0,2.54.8Q238.22,50.88,237.62,47.05Z"/><path class="cls-27" d="M254.15,29.55l3.34,23.05-6.54.95-3.35-23Z"/><path class="cls-27" d="M273.47,51.71a9.37,9.37,0,0,1-7.55-2.92,12.68,12.68,0,0,1-3.26-8.58A13.32,13.32,0,0,1,265,31.47a9.22,9.22,0,0,1,7.44-3.75,9.33,9.33,0,0,1,7.47,2.87A12.48,12.48,0,0,1,283.13,39a13.21,13.21,0,0,1-2.45,9A9.23,9.23,0,0,1,273.47,51.71Zm-.27-5.28a2.49,2.49,0,0,0,2.33-1.69,15.37,15.37,0,0,0,.47-5.8c-.19-4-1.28-6-3.29-5.94-2.17.1-3.14,2.46-2.93,7.08C270,44.41,271.12,46.52,273.2,46.43Z"/><path class="cls-27" d="M307.59,52.63l-5.37-.46-5-10.76a39.59,39.59,0,0,1-1.88-5,17.38,17.38,0,0,1,.2,3.86l-1,11.24-5.35-.46,2-23.21,6.23.53,4.28,8.93A33,33,0,0,1,303.6,42a35.87,35.87,0,0,1,0-6.13L304.2,29l5.37.46Z"/><path class="cls-27" d="M325.74,56l-.25-4.75L319.84,50l-2.21,4.23-5.25-1.1,11.28-21.44,6.84,1.43,1.85,24.19ZM322,45.28l3.41.71-.32-7Z"/><path class="cls-27" d="M353.17,58l-1.77,5.43L337,58.77l7.24-22.14,6.29,2L345.1,55.39Z"/><path class="cls-27" d="M366.62,69.82l10.77-20.65L384.78,53q4.82,2.5,5.6,6.85a12.8,12.8,0,0,1-1.33,8.39,12.35,12.35,0,0,1-6.49,6.19,9.62,9.62,0,0,1-8.19-.58ZM375,68.13l1.53.8a3.28,3.28,0,0,0,3.25-.25A8.47,8.47,0,0,0,382.91,65a9.07,9.07,0,0,0,1.14-4.35,3.16,3.16,0,0,0-1.72-3l-1.52-.79Z"/><path class="cls-27" d="M405,86.05,402,90.68l-13.5-9,12.89-19.4,13.5,9-3,4.48-8.1-5.39-1.87,2.82,6.55,4.35-2.86,4.31L399,77.5l-2.11,3.17Z"/><path class="cls-27" d="M421.82,99.08l-3.58,4.46-11.78-9.45L421,75.91l5.16,4.14-11,13.72Z"/><path class="cls-27" d="M441.32,113.79l-6.1,5.87-4.65-4.83,16.77-16.16,6.39,6.63a12.47,12.47,0,0,1,3,4.36,6.59,6.59,0,0,1,.1,3.86,7.54,7.54,0,0,1-2.12,3.49,7,7,0,0,1-5.36,2.18,7.92,7.92,0,0,1-5.45-2.71Zm3.53-3.54,1.54,1.6q2,2.1,3.69.49t-.3-3.46l-1.68-1.75Z"/><path class="cls-27" d="M461.46,141.25l-4.3,3.53-10.28-12.54,18-14.77L475.18,130,471,133.42l-6.16-7.52L462.24,128l5,6.08-4,3.28-5-6.08-2.94,2.41Z"/><path class="cls-27" d="M471.55,165.06l-4.19-6,5.53-7.66-1.19-1.72-7.32,5.09-3.78-5.44L479.74,136l6.42,9.25a8.23,8.23,0,0,1,1.75,5.83,6.45,6.45,0,0,1-2.91,4.53,8.15,8.15,0,0,1-3.35,1.41,6.53,6.53,0,0,1-4-1Zm4.24-18.25,1.61,2.32a3.23,3.23,0,0,0,1.61,1.33,2,2,0,0,0,1.79-.32c1.22-.85,1.35-2,.38-3.37l-1.73-2.5Z"/><path class="cls-27" d="M503.7,173.9l-13.4,7.65q-3.81,2.17-6.67,1a9.75,9.75,0,0,1-4.77-4.5,10.65,10.65,0,0,1-1.65-6.59q.38-3.06,4-5.13l13.72-7.83,3.33,5.84-13,7.42a3.7,3.7,0,0,0-1.8,1.78,2.57,2.57,0,0,0,.37,2.19,3.26,3.26,0,0,0,1.45,1.43,2.14,2.14,0,0,0,1.54.17,15.7,15.7,0,0,0,2.45-1.23l11.84-6.75Zm-1.94-12.14,6.9,4.37-2.32,2.65-6.2-5.15Z"/></g></g></svg>